<?xml version="1.0" encoding="UTF-8"?>
<svg width="142px" height="66px" viewBox="0 0 142 66" version="1.1" xmlns="http://www.w3.org/2000/svg" xmlns:xlink="http://www.w3.org/1999/xlink">
    <!-- Generator: Sketch 42 (36781) - http://www.bohemiancoding.com/sketch -->
    <title>Group 19</title>
    <desc>Created with Sketch.</desc>
    <defs>
        <path d="M10,0 L10,12 L21,15 C21.6950518,13.9533146 22,12.6933527 22,12 C22,5.03917542 15.9668235,0 10,0 L10,0 Z M9,2 C4.34851022,2.52717241 0,7.0877931 0,13 C0,18.2988937 4.68246529,23 10,23 C14.7116521,23 18.3656172,20.4466889 20,16 L9,13 L9,2 L9,2 Z" id="path-1"></path>
        <mask id="mask-2" maskContentUnits="userSpaceOnUse" maskUnits="objectBoundingBox" x="0" y="0" width="22" height="23" fill="white">
            <use xlink:href="#path-1"></use>
        </mask>
        <path d="M52,11 C54.7625,11 57,8.75625 57,6 C57,3.2375 54.7625,1 52,1 C49.2375,1 47,3.2375 47,6 C47,8.75625 49.2375,11 52,11 Z M52,14 C48.66875,14 42,15.5575 42,18.6666667 L42,21 L62,21 L62,18.6666667 C62,15.5575 55.33125,14 52,14 Z" id="path-3"></path>
        <mask id="mask-4" maskContentUnits="userSpaceOnUse" maskUnits="objectBoundingBox" x="-1" y="-1" width="22" height="22">
            <rect x="41" y="0" width="22" height="22" fill="white"></rect>
            <use xlink:href="#path-3" fill="black"></use>
        </mask>
        <path d="M52,54 C54.7625,54 57,51.75625 57,49 C57,46.2375 54.7625,44 52,44 C49.2375,44 47,46.2375 47,49 C47,51.75625 49.2375,54 52,54 Z M52,57 C48.66875,57 42,58.5575 42,61.6666667 L42,64 L62,64 L62,61.6666667 C62,58.5575 55.33125,57 52,57 Z" id="path-5"></path>
        <mask id="mask-6" maskContentUnits="userSpaceOnUse" maskUnits="objectBoundingBox" x="-1" y="-1" width="22" height="22">
            <rect x="41" y="43" width="22" height="22" fill="white"></rect>
            <use xlink:href="#path-5" fill="black"></use>
        </mask>
        <path d="M99.5155988,12.5237488 C99.5587659,12.1877489 99.5911413,11.8464989 99.5911413,11.499999 C99.5911413,11.153499 99.5587659,10.812249 99.5155988,10.4762491 L101.798061,8.73849923 C102.003105,8.58099924 102.06246,8.29749927 101.927563,8.06649929 L99.7692057,4.42824966 C99.6343084,4.20249968 99.353722,4.10799969 99.1109068,4.20249968 L96.4237522,5.25774957 C95.8679752,4.84299962 95.2582393,4.49124965 94.5999404,4.22349968 L94.1952485,1.44099996 C94.1466854,1.19424998 93.9254538,1 93.6556592,1 L89.3389449,1 C89.0691503,1 88.8479187,1.19424998 88.8047515,1.44099996 L88.4000596,4.22349968 C87.7417607,4.49124965 87.1320248,4.83774962 86.5762478,5.25774957 L83.8890932,4.20249968 C83.646278,4.11324969 83.3656916,4.20249968 83.2307943,4.42824966 L81.0724371,8.06649929 C80.9375398,8.29224927 80.9968946,8.57574924 81.2019386,8.73849923 L83.4790053,10.4762491 C83.4358382,10.812249 83.4034628,11.153499 83.4034628,11.499999 C83.4034628,11.8464989 83.4358382,12.1877489 83.4790053,12.5237488 L81.2019386,14.2614987 C80.9968946,14.4189987 80.9375398,14.7024986 81.0724371,14.9334986 L83.2307943,18.5717493 C83.3656916,18.7974993 83.646278,18.8919993 83.8890932,18.7974993 L86.5762478,17.7422504 C87.1320237,18.1570004 87.7417607,18.5087493 88.4000585,18.7765003 L88.8047505,21.559 C88.8479176,21.80575 89.0691492,22 89.3389449,22 L93.6556592,22 C93.9254538,22 94.1466854,21.80575 94.1898526,21.559 L94.5945445,18.7765003 C95.2528435,18.5087514 95.8625793,18.1622514 96.4183563,17.7422504 L99.1055109,18.7974993 C99.3483261,18.8867482 99.6289125,18.7974993 99.7638098,18.5717493 L101.922167,14.9334986 C102.057064,14.7077486 101.997709,14.4242497 101.792666,14.2614987 L99.5155988,12.5237488 Z M91.4973021,15.1749986 C89.4090915,15.1749986 87.7201771,13.5317487 87.7201771,11.499999 C87.7201771,9.46824915 89.4090915,7.82499932 91.4973021,7.82499932 C93.5855126,7.82499932 95.274427,9.46824915 95.274427,11.499999 C95.274427,13.5317487 93.5855126,15.1749986 91.4973021,15.1749986 Z" id="path-7"></path>
        <mask id="mask-8" maskContentUnits="userSpaceOnUse" maskUnits="objectBoundingBox" x="-1" y="-1" width="23" height="23">
            <rect x="80" y="0" width="23" height="23" fill="white"></rect>
            <use xlink:href="#path-7" fill="black"></use>
        </mask>
        <path d="M10,43 L10,55 L21,58 C21.6950518,56.9533146 22,55.6933527 22,55 C22,48.0391754 15.9668235,43 10,43 L10,43 Z M9,45 C4.34851022,45.5271724 0,50.0877931 0,56 C0,61.2988937 4.68246529,66 10,66 C14.7116521,66 18.3656172,63.4466889 20,59 L9,56 L9,45 L9,45 Z" id="path-9"></path>
        <mask id="mask-10" maskContentUnits="userSpaceOnUse" maskUnits="objectBoundingBox" x="0" y="0" width="22" height="23" fill="white">
            <use xlink:href="#path-9"></use>
        </mask>
        <path d="M99.5155988,55.5237488 C99.5587659,55.1877489 99.5911413,54.8464989 99.5911413,54.499999 C99.5911413,54.153499 99.5587659,53.812249 99.5155988,53.4762491 L101.798061,51.7384992 C102.003105,51.5809992 102.06246,51.2974993 101.927563,51.0664993 L99.7692057,47.4282497 C99.6343084,47.2024997 99.353722,47.1079997 99.1109068,47.2024997 L96.4237522,48.2577496 C95.8679752,47.8429996 95.2582393,47.4912497 94.5999404,47.2234997 L94.1952485,44.441 C94.1466854,44.19425 93.9254538,44 93.6556592,44 L89.3389449,44 C89.0691503,44 88.8479187,44.19425 88.8047515,44.441 L88.4000596,47.2234997 C87.7417607,47.4912497 87.1320248,47.8377496 86.5762478,48.2577496 L83.8890932,47.2024997 C83.646278,47.1132497 83.3656916,47.2024997 83.2307943,47.4282497 L81.0724371,51.0664993 C80.9375398,51.2922493 80.9968946,51.5757492 81.2019386,51.7384992 L83.4790053,53.4762491 C83.4358382,53.812249 83.4034628,54.153499 83.4034628,54.499999 C83.4034628,54.8464989 83.4358382,55.1877489 83.4790053,55.5237488 L81.2019386,57.2614987 C80.9968946,57.4189987 80.9375398,57.7024986 81.0724371,57.9334986 L83.2307943,61.5717493 C83.3656916,61.7974993 83.646278,61.8919993 83.8890932,61.7974993 L86.5762478,60.7422504 C87.1320237,61.1570004 87.7417607,61.5087493 88.4000585,61.7765003 L88.8047505,64.559 C88.8479176,64.80575 89.0691492,65 89.3389449,65 L93.6556592,65 C93.9254538,65 94.1466854,64.80575 94.1898526,64.559 L94.5945445,61.7765003 C95.2528435,61.5087514 95.8625793,61.1622514 96.4183563,60.7422504 L99.1055109,61.7974993 C99.3483261,61.8867482 99.6289125,61.7974993 99.7638098,61.5717493 L101.922167,57.9334986 C102.057064,57.7077486 101.997709,57.4242497 101.792666,57.2614987 L99.5155988,55.5237488 Z M91.4973021,58.1749986 C89.4090915,58.1749986 87.7201771,56.5317487 87.7201771,54.499999 C87.7201771,52.4682492 89.4090915,50.8249993 91.4973021,50.8249993 C93.5855126,50.8249993 95.274427,52.4682492 95.274427,54.499999 C95.274427,56.5317487 93.5855126,58.1749986 91.4973021,58.1749986 Z" id="path-11"></path>
        <mask id="mask-12" maskContentUnits="userSpaceOnUse" maskUnits="objectBoundingBox" x="-1" y="-1" width="23" height="23">
            <rect x="80" y="43" width="23" height="23" fill="white"></rect>
            <use xlink:href="#path-11" fill="black"></use>
        </mask>
        <path d="M10,0 L0,4 L0,11 C0,16.2620455 4.26111111,21.677501 10,23 C15.7388889,21.677501 20,16.2620455 20,11 L20,4 L10,0 Z" id="path-13"></path>
        <mask id="mask-14" maskContentUnits="userSpaceOnUse" maskUnits="objectBoundingBox" x="0" y="0" width="20" height="23" fill="white">
            <use xlink:href="#path-13"></use>
        </mask>
        <path d="M10,0 L0,4 L0,11 C0,16.2620455 4.26111111,21.677501 10,23 C15.7388889,21.677501 20,16.2620455 20,11 L20,4 L10,0 Z" id="path-15"></path>
        <mask id="mask-16" maskContentUnits="userSpaceOnUse" maskUnits="objectBoundingBox" x="0" y="0" width="20" height="23" fill="white">
            <use xlink:href="#path-15"></use>
        </mask>
    </defs>
    <g id="Page-1" stroke="none" stroke-width="1" fill="none" fill-rule="evenodd">
        <g id="Artboard">
            <g id="Group-19">
                <use id="line-2" stroke="#7586A9" mask="url(#mask-2)" stroke-width="2" xlink:href="#path-1"></use>
                <g id="line-1">
                    <use fill-opacity="0" fill="#7586A9" fill-rule="evenodd" xlink:href="#path-3"></use>
                    <use stroke="#7586A9" mask="url(#mask-4)" stroke-width="2" xlink:href="#path-3"></use>
                </g>
                <g id="line-1">
                    <use fill-opacity="0" fill="#7586A9" fill-rule="evenodd" xlink:href="#path-5"></use>
                    <use stroke="#FFFFFF" mask="url(#mask-6)" stroke-width="2" xlink:href="#path-5"></use>
                </g>
                <use id="line-3" stroke="#7586A9" mask="url(#mask-8)" stroke-width="2" xlink:href="#path-7"></use>
                <use id="line-2" stroke="#FFFFFF" mask="url(#mask-10)" stroke-width="2" xlink:href="#path-9"></use>
                <use id="line-3" stroke="#FFFFFF" mask="url(#mask-12)" stroke-width="2" xlink:href="#path-11"></use>
                <g id="Group-10" transform="translate(122.000000, 0.000000)" stroke="#7586A9">
                    <use id="Page-1" mask="url(#mask-14)" stroke-width="2" xlink:href="#path-13"></use>
                    <polyline id="Path-2" points="16.0148926 8.02185059 8.49051186 15 5.01635742 12.0117188"></polyline>
                </g>
                <g id="Group-10" transform="translate(122.000000, 43.000000)" stroke="#FFFFFF">
                    <use id="Page-1" mask="url(#mask-16)" stroke-width="2" xlink:href="#path-15"></use>
                    <polyline id="Path-2" points="16.0148926 8.02185059 8.49051186 15 5.01635742 12.0117188"></polyline>
                </g>
            </g>
        </g>
    </g>
</svg>