<svg xmlns="http://www.w3.org/2000/svg" width="24" height="24" viewBox="0 0 24 24" xmlns:xlink="http://www.w3.org/1999/xlink"><defs><path id="a" d="M35.995 836.857c.044-.336.076-.677.076-1.024 0-.346-.03-.687-.07-1.023l2.286-1.738c.205-.158.264-.44.13-.672l-2.16-3.638c-.134-.226-.414-.32-.657-.226l-2.687 1.055c-.556-.41-1.166-.76-1.824-1.03l-.406-2.78c-.05-.244-.27-.44-.54-.44h-4.32c-.27 0-.49.196-.534.44l-.406 2.785c-.657.268-1.267.614-1.823 1.034l-2.685-1.055c-.25-.09-.53 0-.66.224l-2.16 3.637c-.138.226-.078.51.13.672l2.274 1.737c-.045.336-.078.677-.078 1.023 0 .346.034.687.077 1.023l-2.28 1.737c-.208.156-.268.44-.13.67l2.16 3.637c.13.226.41.32.654.226l2.687-1.055c.558.413 1.168.765 1.826 1.033l.408 2.784c.043.247.264.44.534.44h4.316c.27 0 .49-.193.534-.44l.403-2.782c.66-.266 1.267-.612 1.823-1.032l2.687 1.054c.24.09.522 0 .66-.224l2.155-3.64c.135-.225.075-.51-.13-.67l-2.277-1.74zm-8.018 2.65c-2.088 0-3.777-1.642-3.777-3.674 0-2.03 1.69-3.675 3.777-3.675 2.088 0 3.777 1.644 3.777 3.675 0 2.032-1.69 3.675-3.777 3.675z"/><mask id="b" width="23" height="23" x="-1" y="-1"><path fill="#fff" d="M16.48 824.333h23v23h-23z"/><use xlink:href="#a"/></mask></defs><use fill="none" fill-rule="evenodd" stroke="#7586A9" stroke-width="2" mask="url(#b)" xlink:href="#a" transform="translate(-16 -824)"/></svg>