<svg xmlns="http://www.w3.org/2000/svg" width="26" height="22" viewBox="0 0 26 22" xmlns:xlink="http://www.w3.org/1999/xlink"><defs><path id="a" d="M.27 22h25.606V.307H.27z"/></defs><g fill="none" fill-rule="evenodd"><mask id="b" fill="#fff"><use xlink:href="#a"/></mask><path fill="#35B3E1" d="M19.956 22.01l-.896-3.74c-.508-.328-2.325-1.33-5.603-1.33-.18 0-.34-.068-.477-.195-.28-.264-.557-.847-.488-3.173l.007-.236 2.53-2.495c.253-.833 1.55-5.46-.01-7.8-.04-.06-1.118-1.55-4.336-1.55-3.22 0-4.323 1.533-4.333 1.548-1.563 2.345-.27 6.97-.013 7.807L8.87 13.34l.008.235c.07 2.326-.206 2.91-.486 3.173-.136.127-.297.196-.477.195-3.307 0-5.098.997-5.602 1.328l-.897 3.745L.27 21.74l.995-4.15.155-.127c.083-.067 2.034-1.618 6.177-1.695.055-.242.132-.785.11-1.922l-2.4-2.366-.046-.137c-.08-.24-1.92-5.913.11-8.96.06-.085 1.423-2.077 5.32-2.077 3.897 0 5.26 1.992 5.316 2.077 2.03 3.046.188 8.72.108 8.96l-.042.135-2.4 2.363c-.023 1.14.055 1.68.112 1.926 4.143.077 6.094 1.628 6.178 1.695l.154.126.994 4.15-1.147.275zM19 11h7v1h-7" mask="url(#b)"/><path fill="#35B3E1" d="M22 8h1v7h-1" mask="url(#b)"/></g></svg>