<svg xmlns="http://www.w3.org/2000/svg" width="23" height="23" viewBox="0 0 23 23" xmlns:xlink="http://www.w3.org/1999/xlink"><defs><path id="a" d="M19.012 12.524c.042-.336.074-.678.074-1.024 0-.347-.032-.688-.074-1.024l2.22-1.738c.2-.157.258-.44.127-.672l-2.1-3.638c-.14-.226-.41-.32-.64-.226L16 5.258c-.54-.415-1.133-.767-1.774-1.035l-.394-2.782c-.048-.24-.262-.44-.525-.44h-4.2c-.26 0-.477.2-.52.44L8.2 4.23c-.642.268-1.235.615-1.775 1.035L3.81 4.2c-.236-.09-.51 0-.64.226l-2.1 3.638c-.13.226-.073.51.126.672l2.216 1.738c-.042.336-.074.677-.074 1.024 0 .346.032.688.074 1.024L1.196 14.26c-.2.16-.257.442-.126.673l2.1 3.64c.13.224.404.32.64.224l2.615-1.055c.54.415 1.133.767 1.774 1.035l.39 2.782c.04.24.25.44.52.44h4.2c.26 0 .47-.2.52-.44l.39-2.79c.64-.27 1.23-.618 1.77-1.038l2.612 1.055c.235.09.51 0 .64-.225l2.1-3.64c.13-.222.073-.506-.127-.67L19 12.517zm-7.8 2.65c-2.032 0-3.675-1.642-3.675-3.674s1.643-3.675 3.675-3.675c2.03 0 3.674 1.643 3.674 3.675s-1.643 3.675-3.674 3.675z"/><mask id="b" width="22.429" height="23" x="-1" y="-1"><path fill="#fff" d="M0 0h22.43v23H0z"/><use xlink:href="#a"/></mask></defs><use fill="none" fill-rule="evenodd" stroke="#35B3E1" stroke-width="2" mask="url(#b)" xlink:href="#a"/></svg>