<svg xmlns="http://www.w3.org/2000/svg" width="22" height="22" viewBox="0 0 22 22" xmlns:xlink="http://www.w3.org/1999/xlink"><defs><path id="a" d="M5 10c1.628 2.806 4.2 5.378 7 7l3-2c.1-.778.54-.867 1-1 1.167.667 2.506.89 4 1 .506-.11 1 .383 1 1v4c0 .506-.494 1-1 1C9.456 21 1 12.544 1 2c0-.506.5-1 1-1h4c.617 0 1.11.494 1 1 .11 1.494.333 2.833 1 4-.133.46-.222.9-1 1l-2 3z"/><mask id="b" width="22" height="22" x="-1" y="-1"><path fill="#fff" d="M0 0h22v22H0z"/><use xlink:href="#a"/></mask></defs><use fill="none" fill-rule="evenodd" stroke="#9B9B9B" stroke-width="2" mask="url(#b)" xlink:href="#a"/></svg>